<?xml version="1.0" encoding="utf-8" ?>	<!-- Generator: Assembly 1.8 - http://assemblyapp.co -->	<svg version="1.1" xmlns="http://www.w3.org/2000/svg" xmlns:xlink="http://www.w3.org/1999/xlink" width="1152.00" height="2048.00" viewBox="0 0 1152.0 2048.0">		<g id="document" transform="matrix(1,0,0,1,576.0,1024.0)">			<path d="M-576,1024 L589.234,1024 L589.234,-141.234 L-576,1024 Z " fill="#4d4d4d" fill-opacity="1.00" />			<path d="M-495,-908.451 C-492.441,-909.906 -491.583,-913.028 -492.815,-915.525 L-464.667,-931.532 C-463.151,-929.196 -460.029,-928.338 -457.47,-929.793 C-454.911,-931.248 -454.052,-934.37 -455.446,-937.152 C-456.84,-939.934 -460.023,-940.569 -462.805,-939.175 L-500.62,-917.672 C-503.179,-916.216 -504.037,-913.094 -502.643,-910.313 C-500.681,-907.854 -497.559,-906.996 -495,-908.451 Z M-511.325,-968.588 L-509.758,-961.201 L-488.74,-924.239 L-474.524,-932.323 L-495.542,-969.285 L-501.09,-974.408 C-499.668,-975.217 -499.239,-976.778 -500.109,-977.976 C-500.917,-979.398 -502.478,-979.827 -503.677,-978.957 L-514.196,-972.975 C-515.618,-972.167 -516.047,-970.606 -515.178,-969.407 C-514.246,-968.432 -512.685,-968.002 -511.325,-968.588 Z M-366.23,-726.007 L-362.946,-744.053 L-468.14,-929.369 L-489.119,-917.627 L-383.702,-732.25 L-366.23,-726.007 Z " fill="#4d4d4d" fill-opacity="1.00" />			<path d="M489.793,-942.236 L491.834,-941.135 L326.674,-634.996 L324.633,-636.097 L489.793,-942.236 Z M303.318,-593.302 L333.134,-618.473 C327.804,-618.953 324.73,-624.604 327.4,-629.552 L329.624,-633.675 L322.615,-637.457 L320.39,-633.333 C317.721,-628.385 310.898,-628.074 307.982,-632.042 L303.318,-593.302 Z M471.396,-905.343 L490.217,-910.627 L488.31,-906.598 L469.394,-901.632 L471.396,-905.343 Z M477.847,-917.3 L496.668,-922.584 L494.761,-918.556 L475.845,-913.589 L477.847,-917.3 Z M484.393,-928.94 L502.802,-934.447 L500.895,-930.419 L482.391,-925.229 L484.393,-928.94 Z M490.844,-940.898 L509.348,-946.087 L507.346,-942.376 L488.62,-936.775 L490.844,-940.898 Z M471.396,-905.343 L465.572,-923.656 L463.253,-919.85 L469.394,-901.632 L471.396,-905.343 Z M477.847,-917.3 L472.023,-935.614 L469.704,-931.808 L475.845,-913.589 L477.847,-917.3 Z M484.393,-928.94 L478.474,-947.572 L476.155,-943.766 L482.391,-925.229 L484.393,-928.94 Z M490.844,-940.898 L484.925,-959.529 L482.606,-955.723 L488.62,-936.775 L490.844,-940.898 Z " fill="#000000" fill-opacity="1.00" />			<path d="M-421.155,-565.438 L-455.901,-580.072 L-460.767,-542.569 L-421.155,-565.438 Z M-411.109,-612.342 L-455.196,-586.888 L-416.311,-570.445 L-411.109,-612.342 Z M-409.851,-564.231 L-381.356,-460.908 L-362.946,-591.311 L-409.851,-564.231 Z M-389.014,-464.221 L-415.651,-560.881 L-459.572,-535.524 L-389.014,-464.221 Z M-472.369,-535.87 L-515.627,-510.895 L-510.539,-551.842 L-472.369,-535.87 Z M-512.277,-505.094 L-390.14,-455.836 L-465.373,-532.175 L-512.277,-505.094 Z M-366.295,-597.112 L-404.3,-613.179 L-409.553,-572.137 L-366.295,-597.112 Z M-462.323,-582.774 L-506.409,-557.32 L-467.525,-540.877 L-462.323,-582.774 Z " fill="#bebebe" fill-opacity="1.00" />			<path d="M-185.186,531.938 C-186.012,530.386 -186.892,529.181 -188.414,527.521 C-189.935,525.86 -191.858,524.494 -193.835,523.474 C-195.812,522.455 -198.592,522.023 -201.481,522.285 C-204.369,522.548 -207.767,523.799 -211.111,524.703 C-214.455,525.606 -217.984,525.413 -221.351,524.178 C-223.035,523.56 -224.718,522.942 -226.402,522.324 C-228.139,522.054 -230.224,521.73 -231.561,521.166 C-233.646,520.842 -235.731,520.517 -237.816,520.193 C-235.476,495.998 -241.748,472.243 -254.097,453.238 C-252.089,451.771 -250.83,450.543 -248.876,449.423 C-247.27,448.249 -246.065,447.368 -244.405,445.847 C-242.799,444.673 -241.887,443.391 -240.575,441.816 C-238.35,438.958 -234.953,437.707 -231.555,436.456 C-228.211,435.552 -224.627,435.398 -221.924,434.039 C-219.222,432.679 -217.214,431.212 -215.901,429.637 C-214.187,427.768 -213.461,425.389 -213.19,423.651 C-212.519,421.62 -212.542,419.481 -212.38,418.439 C-212.511,416.994 -212.349,415.952 -212.403,416.299 C-212.403,416.299 -213.391,415.79 -214.434,415.628 C-216.117,415.01 -217.855,414.74 -219.647,414.817 C-221.786,414.84 -224.327,415.157 -226.172,415.582 C-228.126,416.701 -230.775,417.713 -232.196,419.984 C-234.312,422.146 -235.547,425.513 -237.424,428.425 C-239.648,431.282 -241.818,433.792 -245.27,435.391 C-247.17,436.163 -248.668,436.642 -250.274,437.816 C-251.881,438.989 -253.085,439.87 -255.039,440.99 C-257.047,442.457 -258.599,443.283 -260.26,444.805 C-274.91,426.865 -295.344,414.077 -319.107,408.957 C-318.783,406.872 -318.458,404.787 -318.134,402.702 C-317.864,400.964 -317.54,398.879 -317.671,397.435 C-317.401,395.698 -317.825,393.852 -317.903,392.06 C-318.405,388.423 -317.169,385.056 -315.293,382.144 C-313.416,379.233 -311.192,376.375 -310.065,373.703 C-308.937,371.031 -308.559,368.599 -308.875,366.058 C-309.246,363.865 -309.91,361.27 -311.084,359.663 C-312.204,357.71 -313.432,356.451 -314.312,355.246 C-315.54,353.987 -315.834,353.586 -315.834,353.586 C-315.834,353.586 -316.93,353.771 -317.788,354.706 C-319.34,355.532 -320.545,356.412 -322.205,357.934 C-323.865,359.455 -325.232,361.378 -326.252,363.355 C-327.271,365.332 -327.703,368.112 -327.441,371.001 C-327.178,373.889 -325.927,377.287 -325.023,380.631 C-324.12,383.975 -324.313,387.504 -325.548,390.871 C-326.166,392.555 -326.784,394.238 -327.402,395.922 C-327.672,397.659 -327.996,399.745 -328.56,401.081 C-328.884,403.166 -329.208,405.251 -329.533,407.336 C-353.728,404.996 -377.483,411.268 -396.488,423.617 C-397.955,421.609 -399.183,420.35 -400.303,418.396 C-401.477,416.79 -402.357,415.585 -403.879,413.925 C-405.053,412.319 -406.335,411.407 -407.91,410.095 C-410.767,407.871 -412.019,404.473 -413.27,401.075 C-414.173,397.731 -414.328,394.147 -415.687,391.445 C-417.046,388.742 -418.514,386.734 -420.089,385.421 C-421.958,383.707 -424.337,382.981 -426.074,382.71 C-428.105,382.039 -430.245,382.062 -431.287,381.9 C-432.731,382.031 -433.774,381.869 -433.426,381.923 C-433.426,381.923 -433.936,382.911 -434.098,383.954 C-434.716,385.637 -434.986,387.375 -434.909,389.167 C-434.886,391.306 -434.569,393.847 -434.144,395.692 C-433.024,397.646 -432.013,400.295 -429.742,401.716 C-427.58,403.832 -424.213,405.067 -421.301,406.944 C-418.444,409.168 -415.934,411.338 -414.335,414.79 C-413.563,416.69 -413.084,418.188 -411.91,419.794 C-410.736,421.401 -409.856,422.605 -408.736,424.559 C-407.269,426.567 -406.442,428.119 -404.921,429.78 C-422.86,444.43 -435.649,464.864 -440.768,488.627 C-442.853,488.303 -444.939,487.979 -447.024,487.654 C-448.761,487.384 -450.846,487.06 -452.291,487.191 C-454.028,486.921 -455.874,487.345 -457.666,487.423 C-461.303,487.925 -464.67,486.689 -467.582,484.813 C-470.493,482.936 -473.35,480.712 -476.023,479.585 C-478.695,478.457 -481.127,478.079 -483.668,478.396 C-485.861,478.766 -488.456,479.43 -490.062,480.604 C-492.016,481.724 -493.275,482.952 -494.48,483.832 C-496.032,484.659 -496.487,485.3 -496.487,485.3 C-496.487,485.3 -496.302,486.396 -495.368,487.254 C-494.541,488.806 -493.661,490.011 -492.139,491.671 C-490.618,493.331 -488.695,494.698 -486.718,495.718 C-484.741,496.737 -481.961,497.169 -479.073,496.907 C-476.184,496.644 -472.786,495.393 -469.442,494.489 C-466.099,493.586 -462.569,493.779 -459.202,495.014 C-457.519,495.632 -455.835,496.25 -454.152,496.868 C-452.414,497.138 -450.329,497.462 -448.993,498.026 C-446.908,498.35 -444.823,498.674 -442.737,498.999 C-445.077,523.194 -438.806,546.949 -426.457,565.954 C-428.464,567.421 -429.723,568.649 -431.677,569.769 C-433.283,570.943 -434.488,571.823 -436.148,573.345 C-437.755,574.519 -438.666,575.801 -439.979,577.376 C-442.203,580.233 -445.601,581.485 -448.999,582.736 C-452.343,583.639 -455.926,583.794 -458.629,585.153 C-461.332,586.512 -463.34,587.98 -464.652,589.555 C-466.367,591.424 -467.093,593.803 -467.363,595.54 C-468.035,597.571 -468.012,599.711 -468.174,600.753 C-468.042,602.197 -468.205,603.24 -468.15,602.892 C-468.096,602.545 -467.162,603.402 -466.119,603.564 C-464.436,604.182 -462.698,604.452 -460.907,604.375 C-458.767,604.352 -456.227,604.035 -454.381,603.61 C-452.427,602.49 -449.778,601.479 -448.357,599.208 C-446.241,597.046 -445.006,593.679 -443.129,590.767 C-440.905,587.91 -438.735,585.4 -435.283,583.801 C-433.383,583.029 -431.885,582.55 -430.279,581.376 C-428.673,580.202 -427.468,579.322 -425.514,578.202 C-423.506,576.735 -421.954,575.908 -420.294,574.387 C-405.643,592.326 -385.209,605.115 -361.446,610.234 C-361.771,612.319 -362.095,614.405 -362.419,616.49 C-362.689,618.227 -363.014,620.312 -362.882,621.757 C-363.153,623.494 -362.728,625.34 -362.651,627.132 C-362.149,630.769 -363.384,634.136 -365.261,637.048 C-367.137,639.959 -369.361,642.816 -370.489,645.489 C-371.616,648.161 -371.995,650.593 -371.678,653.134 C-371.307,655.327 -370.643,657.922 -369.469,659.528 C-368.295,661.135 -367.121,662.741 -366.241,663.946 C-365.013,665.204 -364.719,665.606 -364.719,665.606 C-364.719,665.606 -363.623,665.421 -362.766,664.486 C-361.213,663.66 -360.009,662.779 -358.348,661.258 C-356.688,659.737 -355.321,657.814 -354.302,655.837 C-353.282,653.86 -352.85,651.079 -353.113,648.191 C-353.375,645.303 -354.626,641.905 -355.53,638.561 C-356.434,635.217 -356.241,631.688 -355.005,628.321 C-354.387,626.637 -353.77,624.954 -353.152,623.27 C-352.882,621.532 -352.557,619.447 -351.993,618.111 C-351.669,616.026 -351.345,613.941 -351.021,611.856 C-326.825,614.195 -303.071,607.924 -284.065,595.575 C-282.598,597.583 -281.37,598.842 -280.25,600.795 C-279.076,602.402 -278.196,603.606 -276.675,605.267 C-275.501,606.873 -274.219,607.784 -272.643,609.097 C-269.786,611.321 -268.535,614.719 -267.284,618.117 C-266.38,621.461 -266.225,625.044 -264.866,627.747 C-263.507,630.45 -262.04,632.458 -260.464,633.771 C-258.595,635.485 -256.217,636.211 -254.479,636.481 C-252.448,637.153 -250.309,637.13 -249.266,637.292 C-247.822,637.161 -246.779,637.323 -247.127,637.269 C-247.127,637.269 -246.617,636.28 -246.455,635.238 C-245.837,633.554 -245.567,631.817 -245.644,630.025 C-245.668,627.886 -245.984,625.345 -246.409,623.499 C-247.529,621.546 -248.541,618.897 -250.811,617.476 C-252.973,615.36 -256.341,614.124 -259.252,612.248 C-262.11,610.024 -264.619,607.854 -266.218,604.402 C-266.99,602.502 -267.469,601.004 -268.643,599.397 C-269.817,597.791 -270.697,596.586 -271.817,594.633 C-273.285,592.625 -274.111,591.073 -275.632,589.412 C-257.693,574.762 -244.905,554.327 -239.785,530.565 C-237.7,530.889 -235.615,531.213 -233.53,531.538 C-231.792,531.808 -229.707,532.132 -228.263,532.001 C-226.525,532.271 -224.679,531.846 -222.888,531.769 C-219.25,531.267 -215.883,532.503 -212.972,534.379 C-210.06,536.256 -207.203,538.48 -204.531,539.607 C-201.859,540.735 -199.426,541.113 -196.885,540.796 C-194.692,540.426 -192.097,539.761 -190.491,538.587 C-188.885,537.414 -187.278,536.24 -186.074,535.359 C-184.869,534.479 -184.413,533.838 -184.413,533.838 C-184.413,533.838 -184.599,532.741 -185.186,531.938 Z M-345.554,540.097 C-362.583,537.448 -373.974,521.439 -371.38,504.758 C-368.785,488.077 -352.722,476.338 -336.041,478.933 C-319.36,481.527 -307.622,497.59 -310.216,514.271 C-312.811,530.952 -328.873,542.691 -345.554,540.097 Z M-308.742,479.62 C-314.24,473.781 -321.399,469.465 -329.23,467.179 C-328.041,459.533 -325.879,445.633 -323.501,430.342 C-305.646,434.542 -290.046,444.087 -278.624,457.609 C-291.073,466.707 -302.664,474.87 -308.742,479.62 Z M-339.308,465.611 C-347.464,465.411 -355.595,467.349 -362.608,471.242 C-367.01,465.218 -375.173,453.627 -384.564,440.776 C-369.976,431.655 -352.106,426.604 -333.525,428.427 C-336.251,443.664 -338.065,457.618 -339.308,465.611 Z M-371.041,477.405 C-376.879,482.903 -381.196,490.062 -383.481,497.893 C-391.127,496.704 -405.028,494.542 -420.319,492.164 C-416.118,474.309 -406.573,458.709 -393.051,447.287 C-383.899,459.388 -375.389,471.033 -371.041,477.405 Z M-385.049,507.971 C-385.249,516.126 -383.311,524.258 -379.419,531.27 C-385.442,535.672 -397.034,543.836 -409.884,553.227 C-419.005,538.639 -424.056,520.769 -422.234,502.188 C-406.595,504.62 -392.694,506.782 -385.049,507.971 Z M-373.202,539.356 C-367.703,545.194 -360.544,549.511 -352.713,551.797 C-353.902,559.442 -356.064,573.343 -358.443,588.634 C-376.297,584.433 -391.897,574.888 -403.32,561.366 C-390.925,552.616 -379.279,544.105 -373.202,539.356 Z M-342.689,553.712 C-334.534,553.912 -326.402,551.974 -319.39,548.081 C-314.988,554.105 -306.825,565.697 -297.434,578.547 C-312.022,587.668 -329.892,592.719 -348.473,590.896 C-345.693,575.312 -343.878,561.357 -342.689,553.712 Z M-310.957,541.919 C-305.119,536.42 -300.802,529.261 -298.516,521.43 C-290.871,522.619 -276.97,524.781 -261.679,527.159 C-265.88,545.014 -275.424,560.614 -288.947,572.036 C-298.044,559.588 -306.555,547.942 -310.957,541.919 Z M-296.949,511.352 C-296.748,503.197 -298.687,495.065 -302.579,488.053 C-296.555,483.651 -284.964,475.488 -272.113,466.097 C-262.993,480.684 -257.942,498.555 -259.764,517.135 C-275.348,514.356 -288.956,512.595 -296.949,511.352 Z " fill="#4d4d4d" fill-opacity="1.00" />			<path d="M-300.899,208.619 L-344.15,183.36 L-367.339,223.066 C-359.063,220.292 -348.986,220.947 -340.477,225.916 L-339.059,226.744 C-329.487,232.335 -323.877,242.267 -322.701,252.463 C-322.613,253.94 -322.318,255.064 -322.791,256.689 L-298.919,209.299 L-300.899,208.619 Z M-396.974,152.51 L-427.908,198.153 C-426.164,196.794 -424.272,195.997 -422.528,194.639 C-413.009,189.738 -401.455,190.305 -391.528,196.102 L-390.465,196.723 C-382.311,201.485 -376.789,209.94 -374.784,218.718 L-351.595,179.012 L-395.201,153.545 L-396.974,152.51 Z M-364.59,104.386 L-392.626,145.065 L-390.499,146.308 L-346.893,171.774 L-322.048,129.231 L-363.172,105.214 L-364.59,104.386 Z M-331.852,56.4694 L-359.888,97.1484 L-358.469,97.9766 L-317.7,121.786 L-292.855,79.2441 L-331.143,56.8835 L-331.852,56.4694 Z M-220.997,46.5661 C-212.477,28.721 -207.917,9.51449 -207.582,-9.78279 L-207.67,-11.2604 C-207.57,-32.5969 -230.407,-46.4092 -249.651,-36.253 C-268.687,-26.4513 -284.919,-11.6834 -296.748,6.13048 L-326.293,50.2072 L-246.171,96.9987 L-220.997,46.5661 Z M-228.252,16.6559 C-228.425,7.99704 -232.529,0.370562 -239.767,-4.33184 C-247.212,-8.67972 -256.018,-9.06833 -263.644,-4.96443 L-268.31,-12.4434 C-258.023,-17.8463 -245.907,-17.4265 -235.98,-11.6293 C-226.054,-5.8321 -219.942,4.86879 -220.155,16.6304 L-228.252,16.6559 Z M-310.609,125.927 L-271.612,148.702 L-269.485,149.944 L-247.831,105.538 L-249.603,104.503 L-285.764,83.3849 L-310.609,125.927 Z M-314.957,133.372 L-339.802,175.915 L-297.26,200.76 L-295.133,202.002 L-273.478,157.596 L-275.251,156.561 L-314.957,133.372 Z M-232.918,187.464 C-240.355,166.006 -247.644,145.109 -248.432,126.106 L-306.739,244.669 L-213.551,282.927 C-211.259,250.509 -222.354,217.405 -232.918,187.464 Z M-215.062,292.028 L-310.732,252.321 L-322.417,276.4 L-222.079,317.882 L-218.883,308.339 C-217.048,302.754 -215.981,297.672 -215.062,292.028 Z M-455.391,255.795 L-411.43,281.468 L-404.805,270.123 L-448.765,244.45 L-455.391,255.795 Z M-394.813,204.168 L-396.231,203.34 C-407.93,196.508 -423.092,200.49 -429.924,212.189 L-444.417,237.005 L-400.457,262.678 L-385.964,237.862 C-378.777,226.37 -383.113,211.001 -394.813,204.168 Z M-403.985,285.816 L-360.025,311.489 L-353.399,300.144 L-397.36,274.471 L-403.985,285.816 Z M-343.407,234.189 L-344.825,233.361 C-356.525,226.529 -371.687,230.511 -378.519,242.21 L-393.012,267.026 L-349.052,292.699 L-334.559,267.883 C-327.726,256.184 -331.354,241.229 -343.407,234.189 Z M-522.706,130.904 L-529.448,138.377 L-444.017,205.385 L-428.787,183.376 L-510.378,119.562 C-514.842,123.135 -518.744,126.562 -522.706,130.904 Z M-410.533,83.7359 C-441.802,89.2464 -476.44,95.6418 -503.608,114.482 L-424.292,176.493 L-349.677,67.4538 C-365.994,75.0405 -387.983,79.3145 -410.533,83.7359 Z " fill="#bebebe" fill-opacity="1.00" />			<path d="M-30.1646,-581.473 C-32.6844,-581.515 -34.6137,-581.4 -36.7013,-580.693 C-40.9074,-586.25 -48.5825,-588.306 -54.9454,-584.633 C-61.3084,-580.959 -63.581,-573.658 -61.0881,-567.612 C-99.2502,-542.086 -147.395,-531.257 -164.238,-521.533 L-166.484,-520.236 C-187.07,-508.351 -193.329,-493.259 -207.926,-484.831 C-219.903,-477.916 -240.952,-473.748 -257.221,-467.35 C-260.431,-465.996 -263.267,-464.857 -266.261,-463.128 C-296.953,-445.409 -307.927,-405.636 -289.991,-374.57 C-287.83,-370.827 -285.294,-367.301 -282.601,-364.364 C-281.146,-362.709 -278.885,-360.521 -277.056,-359.082 L-198.703,-279.555 L-155.659,-304.406 L-186.502,-308.558 C-188.32,-319.486 -191.693,-330.514 -195.972,-340.519 L-152.929,-365.37 L-127.213,-320.83 L-86.7897,-344.168 L-111.038,-348.134 L-107.289,-421.165 C-103.388,-423.916 -99.8611,-426.451 -96.7665,-429.735 L-57.2208,-361.24 L-15.6745,-385.227 L-38.1516,-388.718 L-46.7357,-486.568 L35.8967,-577.693 L33.5155,-594.783 C33.6737,-595.374 -13.3908,-582.674 -30.1646,-581.473 Z " fill="#4d4d4d" fill-opacity="1.00" />			<path d="M-205.147,-864.21 C-201.953,-875.322 -191.873,-882.736 -181.096,-882.86 L-181.385,-914.737 C-199.352,-905.294 -221.775,-911.74 -231.729,-929.424 L-236.169,-937.145 L-244.031,-932.96 C-262.055,-923.319 -284.279,-929.707 -294.489,-947.25 L-309.586,-923.877 L-311.605,-920.591 C-302.596,-914.564 -297.935,-903.127 -301.129,-892.016 C-302.441,-887.452 -304.829,-883.627 -308.096,-880.484 C-318.858,-872.192 -327.129,-860.606 -331.179,-846.518 C-340.02,-815.762 -325.608,-783.692 -298.349,-769.411 C-290.952,-765.996 -287.619,-758.163 -287.619,-758.163 C-287.619,-758.163 -280.691,-762.832 -272.553,-761.996 C-241.872,-759.621 -212.63,-779.142 -203.788,-809.898 C-199.739,-823.987 -200.538,-838.395 -205.253,-851.136 C-206.211,-855.278 -206.402,-859.845 -205.147,-864.21 Z " fill="#8a8a8a" fill-opacity="1.00" />			<path d="M-149.687,261.114 C-143.955,284.315 -129.625,305.213 -107.533,317.967 C-85.1549,330.887 -60.058,333.136 -37.2207,326.046 C-56.2569,319.264 -76.4733,309.887 -96.2696,298.458 C-116.066,287.028 -134.46,274.496 -149.687,261.114 Z M-101.777,160.242 C-110.804,157.326 -119.875,155.149 -128.252,153.755 C-159.087,148.194 -180.478,153.441 -188.76,167.786 C-197.042,182.131 -190.604,203.445 -171.109,227.324 C-152.839,249.348 -124.791,271.662 -92.0841,290.546 C-59.3772,309.429 -26.0283,322.562 2.1802,327.372 C33.0152,332.934 54.4061,327.687 62.8539,313.055 C71.1361,298.71 64.6975,277.396 45.2031,253.517 C39.8083,246.96 33.5083,240.644 26.3476,233.832 C26.0401,229.065 25.2801,224.418 24.0675,219.892 C18.3358,196.691 3.71879,175.628 -18.0858,163.039 C-39.8905,150.451 -65.5612,147.871 -88.3985,154.96 C-92.924,156.173 -97.4939,158.125 -101.777,160.242 Z M49.9433,305.601 C39.839,323.102 -17.7818,316.23 -84.3433,277.801 C-150.905,239.371 -185.667,192.906 -175.563,175.405 C-169.765,165.364 -148.265,163.241 -118.589,170.81 C-121.393,173.017 -124.076,175.676 -126.759,178.335 C-131.838,183.818 -136.342,189.633 -140.318,196.519 C-144.293,203.405 -147.077,210.213 -149.286,217.353 C-135.098,233.196 -112.788,252.197 -80.3678,270.915 C-47.9478,289.633 -20.5026,299.74 0.477046,303.819 C5.55572,298.336 10.0606,292.521 14.036,285.635 C18.0115,278.749 20.7949,271.941 23.0046,264.801 C23.9659,261.148 24.7617,257.782 25.4361,253.963 C46.5425,275.712 55.7408,295.56 49.9433,305.601 Z " fill="#8a8a8a" fill-opacity="1.00" />			<path d="M-514.297,918.6 L-475.605,896.261 C-471.552,888.443 -470.035,879.444 -471.422,870.626 L-538.589,909.404 C-531.646,915.015 -523.094,918.201 -514.297,918.6 Z M-486.055,885.948 C-485.074,885.381 -483.82,885.718 -483.254,886.699 C-482.687,887.68 -483.023,888.934 -484.004,889.5 C-484.985,890.067 -486.24,889.731 -486.806,888.75 C-487.373,887.769 -487.036,886.514 -486.055,885.948 Z M-496.705,892.096 C-495.724,891.53 -494.469,891.866 -493.903,892.847 C-493.336,893.828 -493.673,895.082 -494.654,895.649 C-495.635,896.215 -496.889,895.879 -497.455,894.898 C-498.022,893.917 -497.686,892.663 -496.705,892.096 Z M-507.354,898.245 C-506.373,897.678 -505.119,898.014 -504.552,898.995 C-503.986,899.976 -504.322,901.231 -505.303,901.797 C-506.284,902.363 -507.538,902.027 -508.105,901.046 C-508.671,900.065 -508.335,898.811 -507.354,898.245 Z M-518.003,904.393 C-517.022,903.827 -515.768,904.163 -515.201,905.144 C-514.635,906.125 -514.971,907.379 -515.952,907.945 C-516.933,908.512 -518.188,908.176 -518.754,907.195 C-519.32,906.214 -518.984,904.959 -518.003,904.393 Z M-522.689,842.196 L-539.558,905.153 L-499.645,882.109 L-522.689,842.196 Z M-508.963,857.265 L-495.876,879.932 L-473.209,866.845 L-508.963,857.265 Z " fill="#000000" fill-opacity="1.00" />			<path d="M-465.613,720.624 L-460.753,723.109 L-459.449,720.558 L-464.309,718.073 L-465.613,720.624 Z M-418.947,791.628 L-429.095,799.754 L-433.613,797.444 L-426.218,782.98 L-431.078,780.495 L-438.473,794.959 L-485.259,771.037 L-477.864,756.574 L-482.724,754.089 L-490.119,768.552 L-509.251,758.77 L-531.091,734.289 L-531.474,734.094 L-542.71,721.485 L-545.369,723.864 L-540.252,729.605 L-540.283,729.589 L-527.351,744.082 L-527.348,744.085 L-521.991,765.57 L-410.451,822.6 L-390.026,806.415 L-418.947,791.628 Z M-440.132,670.788 L-435.272,673.273 L-431.737,666.359 L-409.717,673.415 L-432.786,656.41 L-437.009,664.67 L-437.005,664.672 L-440.132,670.788 Z M-450.967,691.978 L-446.107,694.463 L-444.835,691.975 L-449.695,689.49 L-450.967,691.978 Z M-413.967,747.03 L-409.107,749.515 L-407.803,746.965 L-412.663,744.48 L-413.967,747.03 Z M-380.092,692.767 L-358.067,699.824 L-381.136,682.819 L-383.965,688.351 L-385.359,691.079 L-388.487,697.195 L-383.626,699.68 L-380.092,692.767 Z M-399.321,718.385 L-394.461,720.87 L-393.189,718.381 L-398.049,715.896 L-399.321,718.385 Z M-484.652,699.52 L-534.162,721.296 L-517.136,740.756 C-510.686,725.453 -500.011,711.891 -484.652,699.52 Z M-485.59,712.708 C-495.747,719.999 -500.873,730.026 -500.837,742.528 L-458.932,763.954 C-459.459,751.196 -454.336,741.177 -443.685,734.135 L-485.59,712.708 Z M-405.182,791.436 C-405.709,778.678 -400.587,768.659 -389.935,761.617 L-431.84,740.191 C-441.997,747.482 -447.123,757.508 -447.087,770.011 L-405.182,791.436 Z M-444.023,726.146 C-444.304,716.598 -440.449,709.06 -432.545,703.696 L-464.198,687.512 C-471.805,693.022 -475.664,700.57 -475.677,709.962 L-444.023,726.146 Z M-392.377,752.553 C-392.658,743.004 -388.804,735.466 -380.898,730.103 L-412.553,713.918 C-420.159,719.428 -424.018,726.976 -424.031,736.368 L-392.377,752.553 Z M-435.027,694.691 C-435.072,688.357 -432.489,683.305 -427.328,679.634 L-448.707,668.703 C-453.829,672.467 -456.353,677.403 -456.406,683.76 L-435.027,694.691 Z M-383.381,721.097 C-383.426,714.764 -380.843,709.711 -375.682,706.04 L-397.062,695.109 C-402.183,698.874 -404.707,703.81 -404.76,710.166 L-383.381,721.097 Z " fill="#8a8a8a" fill-opacity="1.00" />			<path d="M275.361,-796.287 L267.285,-779.532 L254.681,-785.607 L262.757,-802.362 L245.164,-810.842 L237.088,-794.086 L224.484,-800.161 L232.56,-816.917 L214.966,-825.397 L206.89,-808.641 L188.219,-769.903 L175.193,-776.182 L183.269,-792.937 L165.676,-801.416 L157.6,-784.661 L144.995,-790.736 L153.071,-807.492 L135.478,-815.971 L127.403,-799.216 L114.799,-805.291 L122.874,-822.046 L105.282,-830.525 L97.2059,-813.77 L84.6018,-819.845 L92.6775,-836.6 L75.0838,-845.08 L67.0081,-828.325 L53.9818,-834.603 L72.6528,-873.341 L80.7287,-890.097 L63.136,-898.576 L55.0602,-881.821 L42.4551,-887.896 L50.531,-904.652 L32.9383,-913.131 L24.8624,-896.375 L12.2583,-902.45 L20.3342,-919.206 L2.74153,-927.685 L-5.33435,-910.93 L-24.0053,-872.192 L-88.5957,-738.182 L30.754,-680.658 L59.2049,-739.687 C66.0577,-753.905 83.1395,-759.875 97.3573,-753.022 L97.3814,-753.011 C111.599,-746.158 117.57,-729.076 110.717,-714.858 L82.2663,-655.83 L201.617,-598.305 L266.207,-732.314 L284.878,-771.052 L292.954,-787.808 L275.361,-796.287 L275.361,-796.287 Z " fill="#4d4d4d" fill-opacity="1.00" />			<path d="M304.119,-480.312 L288.844,-499.889 L285.889,-497.584 C274.069,-488.361 256.643,-490.512 247.42,-502.332 L195.05,-462.063 L227.33,-420.693 L257.619,-444.327 L393.366,-270.352 L388.235,-266.645 L440.113,-200.158 L465.969,-220.333 L414.38,-286.451 L409.208,-282.416 L273.461,-456.391 L304.119,-480.312 Z " fill="#000000" fill-opacity="1.00" />			<path d="M161.711,-261.208 C171.318,-277.11 169.33,-296.656 157.404,-310.238 L137.195,-276.778 L122.95,-277.11 L115.993,-289.699 L136.201,-323.159 C119.306,-327.465 100.422,-320.177 90.8151,-304.275 C84.5207,-294.005 83.1955,-282.079 86.1771,-271.478 C88.4961,-262.864 85.8458,-253.92 79.5514,-247.294 L-57.9328,-109.478 L-62.5708,-114.116 L-125.847,-50.5092 L-101,-25.6627 L-37.393,-89.2698 L-42.031,-93.9078 L99.0973,-234.705 C104.729,-240.337 112.68,-242.656 120.631,-241.993 C136.201,-239.674 152.766,-246.631 161.711,-261.208 Z " fill="#000000" fill-opacity="1.00" />			<path d="M323.255,-248.758 L314.84,-254.427 C315.474,-255.643 315.889,-256.759 316.363,-258.034 C316.837,-259.309 317.311,-260.584 317.567,-261.759 L327.641,-260.553 C330.488,-260.401 333.13,-262.14 333.659,-265.027 C333.874,-266.58 334.148,-268.293 334.522,-269.786 C334.833,-272.574 332.935,-275.275 330.048,-275.805 L320.11,-277.867 C320.203,-280.555 320.135,-283.301 319.85,-285.947 L329.575,-288.681 C332.399,-289.445 334.003,-292.295 333.399,-295.06 C333.076,-296.631 332.753,-298.203 332.212,-299.674 C331.448,-302.498 328.597,-304.103 325.892,-303.657 L316.085,-301.68 C315.043,-304.245 313.942,-306.65 312.781,-308.896 L320.686,-315.028 C322.95,-316.725 323.439,-319.991 321.8,-322.415 C320.822,-323.686 320.062,-325.057 319.083,-326.328 C317.385,-328.592 314.12,-329.081 311.755,-327.602 L303.309,-322.941 C301.493,-324.887 299.458,-326.732 297.363,-328.418 L302.295,-337.289 C303.621,-339.88 302.816,-343.082 300.503,-344.668 C299.187,-345.52 297.712,-346.431 296.337,-347.124 C293.805,-348.61 290.763,-347.746 289.017,-345.492 L283.348,-337.078 C282.132,-337.711 281.016,-338.126 279.741,-338.6 C278.466,-339.075 277.191,-339.549 276.016,-339.804 L277.223,-349.878 C277.374,-352.725 275.636,-355.367 272.748,-355.897 C271.195,-356.112 269.483,-356.385 267.989,-356.76 C265.202,-357.07 262.5,-355.172 261.971,-352.285 L259.908,-342.348 C257.221,-342.44 254.474,-342.373 251.828,-342.087 L248.835,-352.09 C248.071,-354.914 245.221,-356.518 242.456,-355.914 C240.885,-355.591 239.313,-355.268 237.842,-354.727 C235.018,-353.963 233.413,-351.113 233.859,-348.407 L235.836,-338.6 C233.271,-337.558 230.866,-336.457 228.62,-335.297 L222.488,-343.201 C220.79,-345.466 217.525,-345.954 215.101,-344.316 C213.83,-343.337 212.459,-342.577 211.188,-341.598 C208.924,-339.9 208.435,-336.635 209.914,-334.27 L215.49,-325.847 C213.544,-324.03 211.699,-321.995 210.013,-319.901 L201.143,-324.832 C198.611,-326.318 195.409,-325.513 193.823,-323.2 C192.971,-321.885 192.059,-320.409 191.366,-319.034 C189.881,-316.502 190.745,-313.46 192.998,-311.714 L201.413,-306.045 C200.779,-304.829 200.364,-303.713 199.89,-302.438 C199.416,-301.163 198.942,-299.888 198.686,-298.713 L188.612,-299.92 C185.766,-300.071 183.123,-298.333 182.594,-295.445 C182.379,-293.892 182.105,-292.18 181.731,-290.686 C181.42,-287.899 183.318,-285.197 186.206,-284.668 L196.143,-282.605 C196.051,-279.918 196.118,-277.171 196.404,-274.525 L186.56,-271.473 C183.736,-270.709 182.132,-267.859 182.736,-265.094 C183.059,-263.522 183.382,-261.951 183.923,-260.48 C184.687,-257.655 187.537,-256.051 190.243,-256.496 L200.05,-258.473 C201.092,-255.909 202.193,-253.504 203.353,-251.258 L195.449,-245.126 C193.184,-243.428 192.696,-240.163 194.334,-237.739 C195.313,-236.468 196.073,-235.097 197.052,-233.826 C198.75,-231.561 202.015,-231.073 204.38,-232.552 L212.803,-238.128 C214.62,-236.182 216.655,-234.337 218.749,-232.651 L213.817,-223.781 C212.332,-221.249 213.136,-218.047 215.45,-216.461 C216.765,-215.609 218.241,-214.697 219.616,-214.004 C222.148,-212.518 225.19,-213.382 226.936,-215.636 L232.605,-224.051 C233.821,-223.417 234.936,-223.002 236.212,-222.528 C237.487,-222.054 238.762,-221.58 239.937,-221.324 L238.73,-211.25 C238.579,-208.403 240.317,-205.761 243.205,-205.232 C244.758,-205.017 246.47,-204.743 247.964,-204.369 C250.751,-204.058 253.453,-205.956 253.982,-208.843 L256.045,-218.781 C258.732,-218.688 261.479,-218.756 264.125,-219.041 L266.858,-209.316 C267.622,-206.492 270.473,-204.888 273.237,-205.492 C274.809,-205.815 276.38,-206.138 277.852,-206.679 C280.676,-207.443 282.28,-210.294 281.835,-212.999 L279.858,-222.806 C282.422,-223.848 284.828,-224.949 287.073,-226.11 L293.205,-218.205 C294.903,-215.941 298.168,-215.452 300.592,-217.091 C301.863,-218.069 303.234,-218.829 304.506,-219.808 C306.77,-221.506 307.259,-224.771 305.779,-227.136 L300.203,-235.559 C302.149,-237.376 303.994,-239.411 305.68,-241.505 L314.551,-236.574 C317.082,-235.088 320.285,-235.893 321.87,-238.206 C322.723,-239.522 323.634,-240.997 324.327,-242.372 C326.473,-243.751 325.727,-247.113 323.255,-248.758 Z M259.692,-326.644 C264.529,-326.478 269.288,-325.615 274.069,-323.837 C278.851,-322.059 283.017,-319.602 286.787,-316.567 C290.038,-314.088 289.435,-309.051 285.718,-307.349 L269.141,-299.363 C266.239,-297.902 263.051,-299.088 261.809,-302.09 L254.478,-318.967 C252.777,-322.684 255.611,-326.892 259.692,-326.644 Z M213.879,-296.147 C213.938,-296.307 213.938,-296.307 213.879,-296.147 C217.436,-305.71 223.783,-313.51 231.71,-318.726 C235.068,-320.924 239.571,-318.887 240.08,-314.888 L242.418,-296.782 C242.904,-293.699 240.603,-290.926 237.579,-290.599 L219.492,-288.799 C215.771,-288.55 212.516,-292.482 213.879,-296.147 Z M228.591,-243.505 C220.892,-249.634 215.316,-258.057 212.783,-267.345 C211.678,-271.203 215.091,-275.014 219.094,-274.069 L236.956,-270.874 C240.062,-270.445 242.001,-267.365 241.412,-264.318 L237.419,-246.753 C236.475,-242.75 231.624,-240.926 228.591,-243.505 Z M254.746,-271.878 C250.283,-273.537 247.981,-278.567 249.64,-283.029 C251.3,-287.492 256.329,-289.795 260.792,-288.135 C265.255,-286.475 267.557,-281.446 265.898,-276.983 C264.238,-272.521 259.049,-270.277 254.746,-271.878 Z M283.39,-241.086 C275.404,-235.711 265.679,-232.978 255.846,-233.369 C251.765,-233.616 249.385,-237.949 251.386,-241.377 L259.841,-257.283 C261.386,-259.974 264.866,-261.038 267.498,-259.334 L283.107,-250.082 C286.595,-248.24 286.748,-243.285 283.39,-241.086 Z M297.839,-256.033 L279.875,-275.051 C277.799,-277.274 277.868,-280.877 280.251,-282.894 L293.852,-295.072 C296.85,-297.767 301.75,-296.307 302.695,-292.508 C305.128,-283.439 304.997,-273.328 301.44,-263.765 C300.433,-261.056 299.325,-258.565 297.839,-256.033 Z " fill="#4d4d4d" fill-opacity="1.00" />			<path d="M276.968,-111.706 L183.312,-161.913 L93.002,-105.904 L96.3473,0.312107 L190.003,50.5187 L280.313,-5.49039 L276.968,-111.706 Z M163.684,-12.8412 C140.061,-25.5049 131.026,-54.839 143.802,-78.6709 C156.578,-102.503 185.8,-111.328 209.632,-98.5527 C233.254,-85.889 242.289,-56.5549 229.513,-32.723 C216.737,-8.89099 187.306,-0.177499 163.684,-12.8412 Z " fill="#4d4d4d" fill-opacity="1.00" />			<path d="M-265.48,-232.2 L-271.795,-263.665 C-262.359,-271.462 -257.363,-284.002 -258.867,-295.505 C-259.488,-298.6 -263.357,-299.165 -265.058,-296.946 C-269.594,-290.133 -275.11,-284.196 -283.103,-278.568 C-283.103,-278.568 -283.619,-278.464 -284.134,-278.361 L-392.718,-256.57 L-408.929,-274.512 L-399.195,-299.54 C-398.114,-303.513 -401.315,-307.432 -405.751,-305.469 L-412.146,-302.575 C-411.478,-307.271 -412.256,-312.481 -413.239,-317.381 C-418.933,-345.752 -446.339,-363.326 -473.678,-357.84 C-482.447,-356.08 -490.338,-352.618 -497.196,-346.681 C-499.464,-344.616 -500.029,-340.746 -497.964,-338.477 C-495.899,-336.209 -492.081,-335.902 -489.864,-338.225 C-484.811,-342.459 -478.622,-345.042 -471.4,-346.491 C-457.215,-349.338 -444.211,-344.704 -434.402,-334.598 C-440.801,-337.07 -448.179,-337.736 -455.401,-336.287 C-458.496,-335.666 -460.557,-332.569 -459.936,-329.474 C-459.315,-326.379 -456.218,-324.318 -453.123,-324.939 C-440.227,-327.527 -427.582,-319.332 -424.943,-306.178 C-424.839,-305.662 -424.632,-304.631 -424.425,-303.599 C-424.579,-301.69 -425.144,-299.162 -425.762,-296.892 L-430.713,-294.825 C-432.415,-293.947 -434.529,-292.449 -436.386,-291.003 L-462.626,-262.663 C-466.543,-255.438 -458.902,-246.776 -451.01,-250.237 L-436.518,-256.902 L-409.092,-208.477 L-427.594,-180.348 C-431.099,-175.083 -429.391,-166.572 -423.662,-163.429 L-382.684,-139.724 L-379.009,-121.412 C-377.87,-115.738 -372.554,-111.975 -366.622,-113.166 C-360.948,-114.305 -357.185,-119.621 -358.376,-125.553 L-372.558,-196.222 L-319.169,-206.937 L-296.409,-193.796 L-304.009,-139.415 C-304.521,-133.946 -300.699,-128.274 -295.231,-127.761 C-294.095,-127.452 -293.322,-127.608 -292.032,-127.867 C-287.905,-128.695 -284.554,-132.05 -283.835,-136.488 L-275.878,-197.111 C-275.211,-201.806 -277.793,-206.654 -281.561,-209.386 L-289.251,-214.282 L-278.935,-216.352 L-267.786,-208.931 L-255.312,-146.773 C-254.432,-142.388 -250.354,-138.109 -245.246,-138.061 C-238.333,-138.375 -233.849,-144.104 -235.195,-150.81 L-248.393,-216.579 C-249.014,-219.674 -250.667,-222.562 -253.764,-224.623 L-265.48,-232.2 Z M-404.788,-174.998 L-394.274,-190.791 L-389.149,-165.257 L-404.788,-174.998 Z " fill="#8a8a8a" fill-opacity="1.00" />			<path d="M-34.9645,766.488 L-25.47,722.181 L2.43805,659.316 L-7.05644,659.316 L-28.3471,710.384 L-40.8626,658.884 C-42.7327,658.74 -44.6028,658.596 -46.6168,658.596 C-70.6408,658.596 -97.1102,676.866 -97.1102,695.999 C-97.1102,706.356 -91.6437,709.953 -81.7177,709.953 C-81.8615,708.658 -83.7316,707.507 -83.7316,700.171 C-83.7316,684.347 -75.6757,673.126 -62.2971,668.235 L-48.4869,722.181 L-57.9814,766.488 L-34.9645,766.488 Z M28.6198,693.266 C-1.01449,693.266 -10.7967,727.791 -10.7967,744.334 C-10.7967,760.734 -1.15834,767.064 12.2203,767.064 C29.9145,767.064 44.3001,750.376 46.6018,723.763 C57.1033,722.037 66.5978,717.721 72.0643,711.823 L70.7696,707.939 C64.5838,712.255 55.2332,716.57 48.6158,716.57 C48.1842,716.57 47.6088,716.57 47.0334,716.283 C47.0334,701.178 40.9914,693.266 28.6198,693.266 Z M17.9745,754.117 C12.508,754.117 10.6378,751.959 10.6378,742.464 C10.6378,728.366 19.5569,702.041 29.7707,702.041 C33.5109,702.041 34.9495,704.343 35.2372,710.384 C32.6478,711.535 30.7777,714.125 30.7777,718.153 C30.7777,721.03 31.6408,723.475 34.6618,724.195 C32.3601,741.17 25.0234,754.117 17.9745,754.117 Z M99.6847,694.56 L89.9025,740.738 C87.7446,747.931 84.0044,753.397 78.394,753.397 C75.2292,753.397 74.0783,750.808 74.0783,747.499 C74.0783,746.205 74.2222,744.91 74.5099,743.471 L84.8675,694.56 L64.1522,694.56 L54.37,740.738 C53.6508,744.191 53.2192,747.355 53.2192,750.089 C53.2192,762.173 59.9804,767.351 68.6118,767.351 C74.6537,767.351 82.7097,765.481 89.9025,753.685 C90.7656,762.604 95.9444,767.351 104.144,767.351 C111.912,767.351 124.859,764.187 133.059,740.738 L127.017,740.738 C124.859,747.931 120.975,753.397 115.365,753.397 C111.337,753.397 109.467,752.103 109.467,748.075 C109.467,746.78 109.611,745.341 110.042,743.471 L120.4,694.56 L99.6847,694.56 Z M157.515,694.56 L155.645,703.479 C160.68,699.164 166.146,694.56 173.051,694.56 C179.525,694.56 182.977,699.883 182.977,705.35 C182.977,710.384 179.669,715.851 172.62,715.851 C164.564,715.851 168.592,706.356 164.276,706.356 C159.96,706.356 157.371,708.514 153.774,711.823 L142.266,766.488 L121.551,766.488 L136.799,694.56 L157.515,694.56 Z M267.277,740.738 C264.544,743.04 260.803,745.629 256.919,747.931 C257.351,746.205 257.495,744.478 257.495,742.464 C257.495,732.97 256.056,727.359 254.33,690.101 L233.039,692.978 C228.58,707.076 223.401,721.318 215.345,735.559 C211.461,737.429 207.72,742.32 207.72,748.938 C207.72,757.713 214.05,767.351 228.723,767.351 C236.06,767.351 245.267,765.05 251.309,758.72 C257.926,754.836 265.838,749.369 273.319,740.738 L267.277,740.738 Z M225.559,740.738 C225.559,738.293 224.12,736.566 222.25,735.703 C226.997,726.496 231.025,717.865 233.902,708.514 C235.341,730.668 236.636,735.128 236.636,742.608 C236.636,752.678 230.45,755.987 224.12,755.987 C217.79,755.987 215.345,752.678 215.345,745.917 C216.064,747.355 217.79,747.787 219.229,747.787 C222.969,747.787 225.559,744.191 225.559,740.738 Z M302.665,671.831 L297.774,694.56 L306.406,694.56 L305.255,700.315 L296.623,700.315 L287.417,743.471 C286.985,745.341 286.841,746.78 286.841,748.075 C286.841,752.103 288.711,753.397 292.739,753.397 C298.35,753.397 303.529,747.931 305.686,740.738 L311.728,740.738 C303.529,764.187 289.287,767.351 281.519,767.351 C272.887,767.351 266.126,762.173 266.126,750.089 C266.126,747.355 266.558,744.191 267.277,740.738 L275.908,700.315 L271.161,700.315 L272.312,694.56 L277.059,694.56 L281.375,674.708 L302.665,671.831 Z M343.089,693.266 C313.455,693.266 303.672,727.791 303.672,744.334 C303.672,760.734 313.311,767.064 326.689,767.064 C344.384,767.064 358.769,750.376 361.071,723.763 C371.572,722.037 381.067,717.721 386.533,711.823 L385.239,707.939 C379.053,712.255 369.702,716.57 363.085,716.57 C362.653,716.57 362.078,716.57 361.502,716.283 C361.502,701.178 355.461,693.266 343.089,693.266 Z M332.444,754.117 C326.977,754.117 325.107,751.959 325.107,742.464 C325.107,728.366 334.026,702.041 344.24,702.041 C347.98,702.041 349.419,704.343 349.706,710.384 C347.117,711.535 345.247,714.125 345.247,718.153 C345.247,721.03 346.11,723.475 349.131,724.195 C346.829,741.17 339.492,754.117 332.444,754.117 Z M399.337,694.56 L397.466,703.479 C402.501,699.164 407.968,694.56 414.873,694.56 C421.347,694.56 424.799,699.883 424.799,705.35 C424.799,710.384 421.49,715.851 414.441,715.851 C406.386,715.851 410.413,706.356 406.098,706.356 C401.782,706.356 399.193,708.514 395.596,711.823 L384.088,766.488 L363.373,766.488 L378.621,694.56 L399.337,694.56 Z M432.711,694.56 L422.929,740.738 C422.21,744.191 421.778,747.355 421.778,750.089 C421.778,762.173 428.539,767.351 437.171,767.351 C442.062,767.351 448.535,766.057 454.721,759.008 L453.283,765.337 C439.616,769.365 428.395,773.537 428.395,786.916 C428.395,796.266 436.595,802.452 445.37,802.452 C454.865,802.452 467.237,798.568 471.552,777.997 L489.103,694.56 L468.244,694.56 L458.461,740.738 C456.304,747.931 452.563,753.397 446.953,753.397 C443.644,753.397 442.637,750.376 442.637,747.068 C442.637,745.917 442.781,744.622 443.069,743.471 L453.426,694.56 L432.711,694.56 Z M436.308,784.902 C436.308,777.134 443.213,772.962 452.276,769.941 L450.549,778.428 C448.679,786.916 444.939,789.649 442.062,789.649 C438.897,789.649 436.308,786.916 436.308,784.902 Z M-337.781,923.555 C-340.514,925.857 -344.255,928.446 -348.139,930.748 C-347.707,929.021 -347.563,927.295 -347.563,925.281 C-347.563,915.787 -349.002,910.176 -350.728,872.918 L-372.019,875.795 C-376.478,889.893 -381.657,904.134 -389.713,918.376 C-393.597,920.246 -397.338,925.137 -397.338,931.755 C-397.338,940.53 -391.008,950.168 -376.335,950.168 C-368.998,950.168 -359.791,947.867 -353.749,941.537 C-347.132,937.653 -339.22,932.186 -331.739,923.555 L-337.781,923.555 Z M-379.499,923.555 C-379.499,921.109 -380.938,919.383 -382.808,918.52 C-378.061,909.313 -374.033,900.682 -371.156,891.331 C-369.717,913.485 -368.423,917.945 -368.423,925.425 C-368.423,935.495 -374.608,938.804 -380.938,938.804 C-387.268,938.804 -389.713,935.495 -389.713,928.734 C-388.994,930.172 -387.268,930.604 -385.829,930.604 C-382.089,930.604 -379.499,927.008 -379.499,923.555 Z M-323.683,857.525 L-327.999,877.377 L-332.746,877.377 L-333.897,883.131 L-329.15,883.131 L-337.781,923.555 C-338.5,927.008 -338.932,930.172 -338.932,932.906 C-338.932,944.99 -332.171,950.168 -323.539,950.168 C-315.771,950.168 -301.53,947.003 -293.33,923.555 L-299.372,923.555 C-301.53,930.748 -306.708,936.214 -312.319,936.214 C-316.347,936.214 -318.217,934.92 -318.217,930.892 C-318.217,929.597 -318.073,928.158 -317.641,926.288 L-308.435,883.131 L-299.803,883.131 L-298.652,877.377 L-307.284,877.377 L-302.393,854.648 L-323.683,857.525 Z M-251.036,877.377 L-252.619,885.002 L-252.619,883.995 C-252.619,879.823 -256.071,876.658 -264.271,876.658 C-289.302,876.658 -301.242,907.587 -301.242,927.008 C-301.242,944.126 -291.891,950.168 -282.109,950.168 C-271.895,950.168 -265.134,943.551 -260.674,936.934 C-259.811,945.565 -254.632,950.168 -246.577,950.168 C-238.808,950.168 -225.861,947.003 -217.662,923.555 L-223.703,923.555 C-225.861,930.748 -229.745,937.077 -235.356,937.077 C-239.384,937.077 -241.254,934.92 -241.254,930.892 C-241.254,929.597 -241.11,928.158 -240.678,926.288 L-230.321,877.377 L-251.036,877.377 Z M-259.811,885.577 C-255.208,885.577 -253.913,889.317 -253.913,891.044 L-260.818,923.555 C-262.545,931.899 -268.587,936.214 -272.758,936.214 C-275.348,936.214 -279.951,936.07 -279.951,924.994 C-279.951,911.471 -272.039,885.577 -259.811,885.577 Z M-213.921,877.377 L-229.17,949.305 L-208.455,949.305 L-196.946,894.64 C-193.35,891.331 -190.76,889.173 -186.445,889.173 C-182.129,889.173 -186.157,898.668 -178.101,898.668 C-171.052,898.668 -167.744,893.201 -167.744,888.166 C-167.744,882.7 -171.196,877.377 -177.67,877.377 C-184.575,877.377 -190.041,881.981 -195.076,886.296 L-193.206,877.377 L-213.921,877.377 Z M-155.516,857.525 L-159.831,877.377 L-164.579,877.377 L-165.73,883.131 L-160.982,883.131 L-169.614,923.555 C-170.333,927.008 -170.764,930.172 -170.764,932.906 C-170.764,944.99 -164.003,950.168 -155.372,950.168 C-147.604,950.168 -133.362,947.003 -125.162,923.555 L-131.204,923.555 C-133.362,930.748 -138.541,936.214 -144.151,936.214 C-148.179,936.214 -150.049,934.92 -150.049,930.892 C-150.049,929.597 -149.905,928.158 -149.474,926.288 L-140.267,883.131 L-131.636,883.131 L-130.485,877.377 L-139.116,877.377 L-134.225,854.648 L-155.516,857.525 Z M-110.489,875.795 C-114.948,889.893 -120.127,904.134 -128.183,918.376 C-132.067,920.246 -135.807,925.137 -135.807,931.755 C-135.807,940.53 -129.478,950.168 -114.805,950.168 C-103.008,950.168 -86.0333,943.983 -86.0333,925.281 C-86.0333,915.787 -87.4719,910.176 -89.1982,872.918 L-110.489,875.795 Z M-117.969,923.555 C-117.969,921.109 -119.408,919.383 -121.278,918.52 C-116.531,909.313 -112.503,900.682 -109.626,891.331 C-108.187,913.485 -106.892,917.945 -106.892,925.425 C-106.892,935.495 -113.078,938.804 -119.408,938.804 C-125.738,938.804 -128.183,935.495 -128.183,928.734 C-127.464,930.172 -125.738,930.604 -124.299,930.604 C-120.559,930.604 -117.969,927.008 -117.969,923.555 Z M-44.7467,877.377 L-59.9954,949.305 L-39.2802,949.305 L-27.7717,894.64 C-24.1753,891.331 -21.5859,889.173 -17.2702,889.173 C-12.9545,889.173 -16.9825,898.668 -8.92656,898.668 C-1.87762,898.668 1.43106,893.201 1.43106,888.166 C1.43106,882.7 -2.02148,877.377 -8.495,877.377 C-15.4001,877.377 -20.8666,881.981 -25.9016,886.296 L-24.0314,877.377 L-44.7467,877.377 Z M12.2203,858.244 C12.2203,864.574 17.2552,869.609 23.5849,869.609 C29.9145,869.609 35.0934,864.574 35.0934,858.244 C35.0934,851.915 29.9145,846.736 23.5849,846.736 C17.2552,846.736 12.2203,851.915 12.2203,858.244 Z M9.34314,877.377 L-0.439064,923.555 C-1.15834,927.008 -1.58991,930.172 -1.58991,932.906 C-1.58991,944.99 5.17132,950.168 13.8027,950.168 C21.5709,950.168 35.8126,947.003 44.0124,923.555 L37.9705,923.555 C35.8126,930.748 30.6338,936.214 25.0234,936.214 C20.9955,936.214 19.1253,934.92 19.1253,930.892 C19.1253,929.597 19.2692,928.158 19.7008,926.288 L30.0584,877.377 L9.34314,877.377 Z M86.3061,877.377 L84.7236,884.858 L84.7236,883.995 C84.7236,879.823 81.2711,876.658 73.0713,876.658 C48.0404,876.658 36.1003,907.587 36.1003,927.008 C36.1003,944.126 45.451,950.168 55.2332,950.168 C62.7137,950.168 68.3241,946.716 72.4959,942.256 L70.7696,949.881 C59.9804,953.189 47.3211,959.231 47.3211,971.315 C47.3211,980.666 54.6578,985.269 63.433,985.269 C72.9275,985.269 85.0114,981.385 89.327,960.814 L91.4849,950.456 C100.404,948.01 111.337,942.544 116.947,923.555 L110.905,923.555 C106.877,936.07 101.555,940.962 92.7796,944.126 L107.021,877.377 L86.3061,877.377 Z M77.5308,885.577 C82.1342,885.577 83.2851,889.317 83.4289,890.9 L76.0923,924.994 C74.0783,932.33 68.4679,936.214 64.5838,936.214 C61.9944,936.214 57.391,936.07 57.391,924.994 C57.391,911.471 65.3031,885.577 77.5308,885.577 Z M55.2332,969.301 C55.2332,963.547 61.9944,959.807 69.3311,957.073 L68.4679,961.245 C66.5978,969.733 63.1453,974.048 60.1243,974.048 C56.9595,974.048 55.2332,971.315 55.2332,969.301 Z M152.336,897.229 C152.336,906.436 145.862,924.13 145.862,933.913 C145.862,942.112 150.322,950.168 162.837,950.168 C170.462,950.168 181.539,947.147 189.595,923.555 L183.553,923.555 C180.388,931.035 177.798,936.214 171.469,936.214 C167.153,936.214 165.715,933.769 165.715,930.172 C165.715,922.116 172.62,904.71 172.62,893.058 C172.62,881.549 165.858,876.802 156.652,876.802 C152.192,876.802 145.862,877.953 139.82,884.858 L147.589,848.606 L126.298,851.483 L105.439,949.305 L126.154,949.305 L136.08,902.552 C136.943,898.668 141.403,889.893 147.013,889.893 C150.61,889.893 152.336,892.482 152.336,897.229 Z M213.475,883.131 L222.106,883.131 L223.257,877.377 L214.626,877.377 C217.359,864.43 219.517,854.648 219.517,854.648 L198.226,857.525 L193.91,877.377 L189.163,877.377 L188.012,883.131 L192.759,883.131 L183.553,926.288 C182.977,928.878 182.69,931.467 182.69,933.913 C182.69,943.119 187.005,950.168 197.075,950.168 C201.966,950.168 208.296,948.442 212.324,936.07 C211.173,936.502 209.591,936.502 208.584,936.502 C204.699,936.502 203.549,934.344 203.549,931.323 C203.549,929.741 203.836,928.015 204.268,926.288 L213.475,883.131 Z M295.904,897.229 C295.904,906.436 289.431,924.13 289.431,933.913 C289.431,942.112 293.89,950.168 306.406,950.168 C314.03,950.168 325.107,947.147 333.163,923.555 L327.121,923.555 C323.956,931.035 321.367,936.214 315.037,936.214 C310.721,936.214 309.283,933.769 309.283,930.172 C309.283,922.116 316.188,904.71 316.188,893.058 C316.188,881.549 309.427,876.802 300.22,876.802 C295.76,876.802 289.431,877.953 283.389,884.858 L291.157,848.606 L269.866,851.483 L249.007,949.305 L269.722,949.305 L279.648,902.552 C280.512,898.668 284.971,889.893 290.581,889.893 C294.178,889.893 295.904,892.482 295.904,897.229 Z M346.541,926.001 C346.541,924.274 346.685,922.26 346.829,920.246 C364.092,919.239 379.916,906.436 379.916,889.893 C379.916,882.7 376.895,876.083 364.092,876.083 C334.601,876.083 325.251,910.752 325.251,927.295 C325.251,943.551 334.17,950.168 347.692,950.168 C366.825,950.168 379.053,936.79 387.253,923.555 L382.362,923.555 C375.169,931.755 368.264,938.084 356.899,938.084 C349.994,938.084 346.541,935.783 346.541,926.001 Z M368.839,889.605 C368.839,901.545 359.057,912.622 347.98,913.341 C350.857,899.099 357.906,883.707 365.243,883.707 C367.976,883.707 368.839,886.009 368.839,889.605 Z M392.144,877.377 L376.895,949.305 L397.61,949.305 L409.119,894.64 C412.715,891.331 415.305,889.173 419.62,889.173 C423.936,889.173 419.908,898.668 427.964,898.668 C435.013,898.668 438.322,893.201 438.322,888.166 C438.322,882.7 434.869,877.377 428.395,877.377 C421.49,877.377 416.024,881.981 410.989,886.296 L412.859,877.377 L392.144,877.377 Z M455.728,924.562 C455.728,923.267 455.872,921.685 456.016,920.246 C473.279,919.239 489.103,906.58 489.103,889.893 C489.103,882.7 486.082,876.083 473.279,876.083 C443.788,876.083 434.437,910.752 434.437,927.295 C434.437,943.551 443.356,950.168 456.735,950.168 C468.244,950.168 478.601,945.277 481.622,928.878 C477.019,932.906 470.114,936.502 464.647,936.502 C459.612,936.502 455.728,933.625 455.728,924.562 Z M478.026,889.605 C478.026,901.689 468.244,912.766 457.023,913.341 C460.044,899.675 467.237,883.707 474.429,883.707 C477.163,883.707 478.026,886.009 478.026,889.605 Z " fill="#ffffff" fill-opacity="1.00" />			<path d="M381.171,489.205 L191.915,598.472 L197.397,607.966 L386.653,498.699 L381.171,489.205 L381.171,489.205 Z M373.984,476.756 L184.728,586.024 L186.921,589.821 L376.177,480.554 L373.984,476.756 L373.984,476.756 Z M369.721,469.372 L180.464,578.639 L182.657,582.437 L371.913,473.17 L369.721,469.372 L369.721,469.372 Z M359.245,451.227 L169.988,560.494 L175.47,569.988 L364.726,460.721 L359.245,451.227 L359.245,451.227 Z M337.44,413.46 L148.184,522.727 L153.665,532.222 L342.922,422.954 L337.44,413.46 L337.44,413.46 Z M352.18,438.99 L162.923,548.257 L165.116,552.054 L354.372,442.787 L352.18,438.99 L352.18,438.99 Z M347.794,431.394 L158.538,540.661 L160.731,544.459 L349.987,435.192 L347.794,431.394 L347.794,431.394 Z M330.375,401.223 L141.119,510.49 L143.311,514.288 L332.567,405.02 L330.375,401.223 L330.375,401.223 Z M325.99,393.627 L136.733,502.894 L138.926,506.692 L328.182,397.425 L325.99,393.627 L325.99,393.627 Z M315.514,375.482 L126.257,484.749 L131.739,494.244 L320.995,384.977 L315.514,375.482 L315.514,375.482 Z M293.709,337.715 L104.453,446.982 L109.934,456.477 L299.19,347.21 L293.709,337.715 L293.709,337.715 Z M308.448,363.245 L119.192,472.512 L121.385,476.31 L310.641,367.043 L308.448,363.245 L308.448,363.245 Z M304.063,355.649 L114.807,464.916 L116.999,468.714 L306.256,359.447 L304.063,355.649 L304.063,355.649 Z M286.644,325.478 L97.3873,434.745 L99.58,438.543 L288.836,329.276 L286.644,325.478 L286.644,325.478 Z M282.258,317.882 L93.002,427.15 L95.1947,430.947 L284.451,321.68 L282.258,317.882 L282.258,317.882 Z " fill="#ffffff" fill-opacity="1.00" />			<path d="M351.256,406.119 L350.844,462.924 L378.89,413.523 L434.168,206.558 L406.534,199.153 L404.215,207.81 L419.863,212.003 L367.586,407.104 L363.923,406.123 L415.219,214.684 L403.233,211.472 L351.256,406.119 Z M441.383,180.221 L413.839,172.84 L409.234,190.026 L436.778,197.407 L441.383,180.221 Z " fill="#ffffff" fill-opacity="1.00" />		</g>	</svg>