<?xml version="1.0" encoding="utf-8" ?>	<!-- Generator: Assembly 1.8 - http://assemblyapp.co -->	<svg version="1.1" xmlns="http://www.w3.org/2000/svg" xmlns:xlink="http://www.w3.org/1999/xlink" width="2048.00" height="2048.00" viewBox="0 0 2048.0 2048.0">		<g id="document" transform="matrix(1,0,0,1,1024.0,1024.0)">			<path d="M-703.706,-299.136 L-900.346,-228.013 L-877.812,-165.711 L-815.51,-188.245 L-549.678,546.722 L-477.642,520.667 L-743.474,-214.3 L-681.172,-236.834 L-703.706,-299.136 Z M-311.052,77.3281 L-383.088,103.383 L-283.445,378.874 C-278.516,392.503 -283.217,400.808 -297.819,406.09 C-313.395,411.723 -323.295,408.699 -328.224,395.07 L-440.191,85.5083 L-323.375,43.2568 L-455.411,-321.793 C-470.903,-364.625 -518.105,-379.476 -575.54,-358.703 C-638.815,-335.817 -658.347,-292.425 -635.813,-230.123 L-407.655,400.683 C-384.769,463.958 -341.377,483.49 -278.102,460.604 C-221.641,440.182 -196.268,394.678 -211.409,352.819 L-311.052,77.3281 Z M-458.148,35.8615 L-571.875,-278.568 C-576.804,-292.197 -571.481,-301.828 -555.905,-307.461 C-541.303,-312.743 -532.024,-308.393 -527.095,-294.764 L-413.368,19.6651 L-458.148,35.8615 Z M-146.663,400.954 L-87.2818,379.476 L-142.228,84.5166 L1.30358,347.436 L79.1809,319.268 L-154.592,-80.5373 L-215.026,-475.888 L-284.142,-450.889 L-241.457,-226.35 L-345.471,-428.707 L-432.109,-397.371 L-220.104,-42.5314 L-146.663,400.954 Z M10.8179,-557.574 L-185.822,-486.451 L-163.288,-424.149 L-100.986,-446.683 L164.846,288.284 L236.882,262.229 L-28.9498,-472.738 L33.3521,-495.272 L10.8179,-557.574 Z " fill="#8a8a8a" fill-opacity="1.00" />			<g>				<g>					<path d="M616.075,-711.636 L555.401,-711.235 L558.895,-182.321 L787.08,-183.828 C792.356,-183.863 797.597,-189.174 797.562,-194.449 L797.109,-263.037 C797.091,-265.675 795.755,-268.304 793.768,-269.61 C692.754,-385.679 629.768,-535.634 626.696,-701.154 C627.317,-707.094 622.01,-711.675 616.075,-711.636 Z " fill="#000000" fill-opacity="1.00" />					<path d="M496.818,-710.848 L557.492,-711.249 L560.985,-182.335 L332.8,-180.827 C327.524,-180.793 322.213,-186.034 322.178,-191.31 L321.725,-259.897 C321.708,-262.535 323.009,-265.182 324.979,-266.514 C424.451,-383.906 485.451,-534.681 486.336,-700.227 C485.637,-706.158 490.883,-710.809 496.818,-710.848 Z " fill="#000000" fill-opacity="1.00" />				</g>				<path d="M744.947,463.62 C776.165,463.413 801.117,426.719 801.377,383.192 L797.989,-129.761 C797.697,-174.061 772.262,-210.423 740.497,-210.213 L379.03,-207.826 C347.813,-207.62 322.308,-171.698 322.606,-126.621 L325.988,385.554 C326.281,429.855 351.715,466.217 383.481,466.007 L744.947,463.62 Z " fill="#000000" fill-opacity="1.00" />				<path d="M800.914,313.08 L797.45,-211.445 L322.066,-208.305 L325.53,316.22 L800.914,313.08 Z " fill="#8a8a8a" fill-opacity="1.00" />				<path d="M609.025,158.441 C591.593,154.205 571.269,151.439 545.452,151.319 C566.397,116.372 580.42,87.5626 584.268,55.3391 C586.201,40.5327 566.4,29.0606 549.837,68.6198 C541.844,88.1074 489.256,119.202 450.886,106.983 C416.876,96.1846 405.248,48.3995 430.409,-6.88044 C449.055,5.46952 478.695,13.3958 506.827,12.6298 C629.51,10.0791 648.531,-96.5031 558.811,-109.834 C512.064,-116.777 453.659,-87.9642 423.244,-37.5808 C420.949,-33.7947 418.653,-30.0086 416.938,-26.2263 C399.104,-47.2838 395.44,-75.1066 414.424,-99.308 C419.025,-105.43 414.67,-105.981 410.638,-101.604 C384.133,-74.1617 389.866,-40.5511 412.354,-17.4939 C381.463,48.5566 404.747,104.387 441.087,116.62 C489.052,132.257 543.607,91.5767 560.902,74.9283 L559.774,79.867 C553.861,106.883 545.003,127.246 530.949,151.415 C512.677,151.826 484.555,154.042 469.487,156.462 C397.329,167.091 339.334,213.886 393.415,233.254 C425.98,244.932 504.668,212.794 541.441,158.888 C564.644,158.444 593.373,160.285 606.739,163.678 C617.779,166.216 617.45,160.416 609.025,158.441 Z M560.319,-101.142 C631.454,-90.8789 609.093,-6.90032 511.408,3.60733 C481.841,6.70334 452.204,-0.932866 434.13,-14.4469 C436.706,-19.6852 439.86,-25.2174 443.016,-30.4596 C469.987,-75.3089 520.832,-106.682 560.319,-101.142 Z M526.36,159.277 C492.745,208.232 426.761,231.293 400.907,225.662 C358.209,216.952 421.731,172.442 473.02,164.271 C489.246,161.553 508.09,159.978 526.36,159.277 Z M648.618,4.44152 C649.734,-2.23752 645.059,-7.42794 638.387,-7.38388 C632.006,-7.34173 625.659,-2.07851 624.543,4.60053 C623.717,11.2777 628.102,16.47 634.774,16.4259 C641.445,16.3819 647.502,11.1206 648.618,4.44152 Z M608.358,101.302 C608.924,99.2673 611.783,92.8668 611.783,92.8668 L634.629,38.4724 C637.774,31.4899 637.753,28.2992 628.471,28.3605 L612.52,28.756 C613.689,30.1986 617.785,35.3928 615.501,40.9193 L597.249,88.3216 C591.257,103.445 591.407,126.07 613.161,125.926 C634.626,125.784 650.916,88.8374 658.35,72.5443 C660.922,66.7258 656.848,64.7222 654.562,69.9586 C646.548,86.2556 637.095,104.303 627.586,113.938 C624.414,116.859 618.924,120.086 614.569,119.535 C606.444,119.009 605.81,110.891 608.358,101.302 Z M756.098,71.6086 C758.961,65.7882 754.306,63.7885 752.02,69.0249 C746.009,81.2476 727.697,119.368 712.614,119.468 C708.843,119.493 705.635,116.903 707.877,104.995 C711.513,84.6662 742.19,29.93 742.19,29.93 C732.305,26.5144 702.549,44.9855 688.709,57.55 C679.769,65.441 670.559,76.5246 664.806,83.8144 C675.11,62.8612 690.872,33.7498 699.543,29.0514 C695.488,29.9484 691.126,28.2368 687.353,27.9716 C678.067,27.4528 674.329,32.4087 666.879,46.3814 C652.839,72.5807 641.129,100.215 627.388,127.863 C630.277,126.103 632.889,126.376 637.238,126.057 C643.329,126.017 645.938,125.709 648.232,121.633 C664.262,89.3294 678.368,72.9922 688.171,63.9352 C710.367,42.9034 715.64,50.7005 708.753,62.0588 C700.718,75.1651 695.272,85.0636 693.001,92.6205 C684.478,119.653 698.447,126.523 708.599,126.456 C730.933,126.308 747.513,89.3597 756.098,71.6086 Z " fill="#ffffff" fill-opacity="1.00" />				<path d="M478.515,-676.124 L635.603,-677.161 L634.952,-775.704 L477.864,-774.667 L478.515,-676.124 Z " fill="#bebebe" fill-opacity="1.00" />			</g>			<path d="M90.3616,20.7025 C90.2467,3.30811 96.488,-11.4748 109.085,-23.6462 C120.508,-35.2201 135.211,-41.0665 153.195,-41.1853 C172.063,-41.3099 187.579,-35.6631 199.743,-24.245 C211.321,-12.2332 217.167,2.46982 217.282,19.8643 C217.389,36.0794 212.033,51.0039 201.214,64.6377 C189.214,77.9844 168.366,90.8 138.669,103.084 C124.725,89.9089 113.576,75.9779 105.224,61.2914 C95.4034,47.4991 90.4493,33.9695 90.3616,20.7025 Z M386.027,526.011 L494.816,525.293 L385.171,396.437 C403.319,376.564 419.535,354.197 433.817,329.336 C448.104,305.065 459.737,280.812 468.717,256.577 L385.804,224.398 C373.971,263.099 355.487,299.191 330.353,332.673 L191.724,167.745 C264.6,130.999 300.25,82.7055 298.676,22.8647 C297.819,-17.5219 284.326,-51.7809 258.195,-79.9123 C232.063,-108.044 196.884,-122.258 152.657,-122.556 C108.733,-121.676 73.892,-106.999 48.1347,-78.5249 C21.7878,-50.0469 8.74768,-15.6126 9.01445,24.7778 C9.15855,46.5946 14.6055,67.7866 25.3554,88.354 C34.6331,109.226 47.145,128.75 62.8913,146.925 C-18.1813,192.57 -58.7467,255.638 -58.8047,336.128 C-57.8568,390.371 -38.5361,436.385 -0.842668,474.169 C35.6754,512.551 84.7471,532.129 146.372,532.901 C180.568,532.085 212.51,524.946 242.199,511.482 C272.183,498.017 300.082,481.322 325.896,461.397 L386.027,526.011 Z M271.936,393.647 C227.673,432.563 184.608,451.864 142.739,451.551 C110.309,451.765 82.52,440.45 59.3721,417.606 C35.6423,395.945 23.3716,368.312 22.56,334.706 C21.6588,287.539 52.4849,245.321 115.038,208.054 L271.936,393.647 Z " fill="#4d4d4d" fill-opacity="1.00" />		</g>	</svg>